<mxfile host="app.diagrams.net" modified="2023-10-19T20:54:00.105Z" agent="Mozilla/5.0 (Macintosh; Intel Mac OS X 10_15_7) AppleWebKit/537.36 (KHTML, like Gecko) Chrome/117.0.0.0 Safari/537.36" version="21.8.2" etag="1y6JQmMaybDBnKFWF-Q9" type="github">
  <diagram name="Page-1" id="mYQ9MSHcmoMipLfy8GcW">
    <mxGraphModel>
      <root>
        <mxCell id="0" />
        <mxCell id="1" parent="0" />
      </root>
    </mxGraphModel>
  </diagram>
</mxfile>
